<svg width="41" height="41" viewBox="0 0 41 41" fill="none" xmlns="http://www.w3.org/2000/svg">
<g clip-path="url(#clip0_32_1376)">
<path fill-rule="evenodd" clip-rule="evenodd" d="M38.8142 2.19725C37.9728 1.3508 36.89 0.78547 35.7145 0.578807C34.5389 0.372144 33.3283 0.534277 32.2485 1.04296C31.5297 1.38021 30.8878 1.8616 30.3628 2.45725L15.1685 19.4658C16.6188 20.1046 17.9263 21.0277 19.0138 22.1804C20.1013 23.3332 20.9467 24.6922 21.5 26.1772L38.5571 10.7201C39.1474 10.1921 39.624 9.54943 39.9581 8.83131C40.2921 8.11319 40.4764 7.33461 40.5 6.54296C40.5305 5.74189 40.3967 4.94305 40.1068 4.19566C39.8169 3.44827 39.377 2.76816 38.8142 2.19725ZM15.9085 36.4972L15.96 36.4458C11.92 40.4601 5.32567 41.9801 0.979958 38.7515C0.359958 38.2944 0.374244 37.403 0.854244 36.7972C2.95139 34.1515 2.7571 32.1401 2.57424 30.2715C2.3971 28.4487 2.23424 26.7687 4.22282 24.783C4.97535 23.9447 5.89091 23.2687 6.91355 22.7962C7.93619 22.3238 9.04443 22.0648 10.1705 22.0352C11.2966 22.0056 12.417 22.2059 13.463 22.6239C14.5091 23.0419 15.459 23.6688 16.2546 24.4663C17.0501 25.2638 17.6747 26.2152 18.0902 27.2623C18.5056 28.3094 18.7032 29.4302 18.6708 30.5563C18.6384 31.6823 18.3768 32.7899 17.9018 33.8114C17.4269 34.8329 16.7486 35.7468 15.9085 36.4972Z" fill="url(#paint0_linear_32_1376)"/>
</g>
<defs>
<linearGradient id="paint0_linear_32_1376" x1="2.91884" y1="36.2072" x2="33.1426" y2="3.97188" gradientUnits="userSpaceOnUse">
<stop stop-color="#40E0D0"/>
<stop offset="1" stop-color="#F5F5F5"/>
</linearGradient>
<clipPath id="clip0_32_1376">
<rect width="40" height="40" fill="white" transform="translate(0.5 0.5)"/>
</clipPath>
</defs>
</svg>
