<svg width="86" height="87" viewBox="0 0 86 87" fill="none" xmlns="http://www.w3.org/2000/svg">
<path d="M72.1054 33.9684C71.9935 33.9899 71.8887 34.0392 71.8008 34.1117L71.4156 34.4342L69.821 35.7332C69.6932 35.8334 69.5355 35.8879 69.3731 35.8879C69.2107 35.8879 69.053 35.8334 68.9252 35.7332C68.1392 35.2065 67.2944 34.7736 66.4079 34.4432C66.2676 34.3922 66.1462 34.2998 66.0598 34.1782C65.9734 34.0566 65.9261 33.9115 65.9241 33.7623V30.8957C65.925 30.729 65.8699 30.5668 65.7675 30.4352C65.6652 30.3036 65.5215 30.2102 65.3597 30.17C64.1852 29.895 62.9828 29.7568 61.7764 29.758C61.0392 29.7583 60.3029 29.8092 59.5727 29.9102C59.3954 29.938 59.2339 30.0282 59.1173 30.1645C59.0007 30.3009 58.9366 30.4744 58.9366 30.6538V33.7892C58.9364 33.9422 58.8889 34.0914 58.8008 34.2165C58.7126 34.3415 58.588 34.4363 58.4439 34.488C57.4076 34.8909 56.431 35.4334 55.5414 36.1005C55.4124 36.1978 55.2551 36.2505 55.0935 36.2505C54.9319 36.2505 54.7746 36.1978 54.6456 36.1005L52.191 34.4342L51.7162 34.1027C51.581 34.0126 51.4197 33.9699 51.2576 33.9813C51.0955 33.9926 50.9417 34.0574 50.8204 34.1655C49.4044 35.5021 48.2499 37.091 47.4162 38.8507C47.3508 39.0072 47.3409 39.1814 47.3882 39.3444C47.4354 39.5073 47.537 39.6492 47.676 39.7465L48.115 40.0421L50.892 41.9323C51.015 42.0208 51.1089 42.1438 51.1615 42.2859C51.2142 42.4279 51.2233 42.5824 51.1877 42.7296C51.0598 43.2808 50.973 43.8408 50.9279 44.4048C50.9222 44.5584 50.868 44.7061 50.773 44.8269C50.6781 44.9476 50.5472 45.0351 50.3993 45.0767L46.9504 46.1875L46.395 46.3488C46.2328 46.3969 46.0916 46.4981 45.9941 46.6363C45.8966 46.7744 45.8485 46.9414 45.8575 47.1103C46.0163 49.0476 46.5295 50.9393 47.3714 52.6913C47.4478 52.854 47.5811 52.983 47.7462 53.054C47.9113 53.125 48.0967 53.133 48.2673 53.0765L48.7689 52.9242L52.2089 51.9119C52.3563 51.8681 52.5139 51.8722 52.6588 51.9238C52.8037 51.9753 52.9285 52.0715 53.0152 52.1986C53.2936 52.5904 53.5927 52.9672 53.911 53.3273C54.0067 53.4319 54.071 53.5614 54.0963 53.7008C54.1217 53.8403 54.1071 53.9841 54.0543 54.1157L52.621 57.493L52.397 58.0215C52.3324 58.1773 52.322 58.3504 52.3674 58.5128C52.4129 58.6753 52.5117 58.8177 52.6479 58.9173C54.236 60.0244 56.0116 60.8348 57.8885 61.3092C58.0657 61.3622 58.2563 61.3465 58.4224 61.2651C58.5884 61.1838 58.7177 61.0427 58.7843 60.8703L58.9904 60.3686L59.1516 60.0013C58.8539 60.9953 58.703 62.0274 58.7037 63.065V69.4792H27.3495V63.0382C27.3357 61.4964 26.9966 59.975 26.3544 58.5733C25.7122 57.1717 24.7814 55.9213 23.6229 54.904C20.0715 51.7412 17.349 47.7566 15.6932 43.2986C14.0375 38.8406 13.499 34.0449 14.1248 29.3307C14.7505 24.6165 16.5216 20.1273 19.283 16.2557C22.0444 12.384 25.7122 9.2477 29.9657 7.12095C34.2192 4.9942 38.9289 3.94174 43.6831 4.05559C48.4373 4.16943 53.0913 5.44611 57.2381 7.77401C61.3849 10.1019 64.8984 13.4102 67.4714 17.4096C70.0443 21.409 71.5985 25.9777 71.9979 30.7165C72.0912 31.7978 72.127 32.8833 72.1054 33.9684Z" fill="url(#paint0_linear_413_1158)"/>
<g opacity="0.2">
<path d="M72.0069 30.7075C71.5154 24.965 69.33 19.4977 65.7278 14.9985C62.1255 10.4994 57.2686 7.17105 51.7727 5.43533C46.2767 3.69961 40.3891 3.63469 34.8562 5.24878C29.3233 6.86288 24.3942 10.0833 20.6936 14.5019C24.8254 11.3088 29.7401 9.28596 34.9225 8.64561C40.105 8.00525 45.3642 8.77093 50.149 10.8624C54.9337 12.9538 59.0677 16.2939 62.1174 20.5326C65.1672 24.7713 67.0205 29.7525 67.483 34.9538C67.9839 35.1938 68.4687 35.4661 68.9342 35.769C69.062 35.8693 69.2197 35.9238 69.3821 35.9238C69.5446 35.9238 69.7023 35.8693 69.8301 35.769L71.4247 34.47L71.8099 34.1475C71.8978 34.075 72.0025 34.0257 72.1144 34.0042C72.1377 32.9042 72.1018 31.8037 72.0069 30.7075ZM55.5415 36.1005C56.4533 35.4277 57.4543 34.885 58.5157 34.488C58.6716 34.4312 58.804 34.324 58.8919 34.1834C58.3724 34.1386 57.8528 34.1028 57.3332 34.1028C56.596 34.1031 55.8597 34.154 55.1294 34.255C54.9522 34.2828 54.7907 34.373 54.6741 34.5093C54.5574 34.6457 54.4934 34.8192 54.4934 34.9986V36.0109L54.6636 36.1273C54.7938 36.2167 54.9491 36.2622 55.107 36.2574C55.2648 36.2526 55.417 36.1976 55.5415 36.1005Z" fill="black"/>
</g>
<path opacity="0.2" d="M39.4165 64.3013C38.5677 64.3025 37.7269 64.1359 36.9427 63.811C36.1584 63.4862 35.4461 63.0095 34.8467 62.4084C34.2473 61.8074 33.7726 61.0937 33.4499 60.3086C33.1273 59.5234 32.963 58.6822 32.9665 57.8334C32.9426 56.3038 32.5987 54.7961 31.9569 53.4075C31.315 52.0189 30.3895 50.7801 29.2399 49.7709C23.5899 44.7334 20.1255 37.6924 19.5819 30.1425C19.0383 22.5925 21.4584 15.1278 26.3284 9.33295C22.7286 11.8478 19.7444 15.1443 17.599 18.9757C15.4536 22.8072 14.2027 27.0743 13.9399 31.4576C13.6771 35.8409 14.4092 40.2269 16.0814 44.2873C17.7536 48.3476 20.3226 51.9771 23.5961 54.904C24.7546 55.9213 25.6854 57.1716 26.3276 58.5733C26.9698 59.975 27.3089 61.4964 27.3228 63.0382V69.4792H58.6769V64.3013H39.4165Z" fill="#FBFBFB"/>
<path d="M30.906 76.6459H55.0935V81.125C55.0935 81.6002 54.9047 82.0559 54.5687 82.3919C54.2327 82.7279 53.777 82.9167 53.3018 82.9167H32.6977C32.2225 82.9167 31.7668 82.7279 31.4308 82.3919C31.0948 82.0559 30.906 81.6002 30.906 81.125V76.6459Z" fill="url(#paint1_linear_413_1158)"/>
<path opacity="0.2" d="M52.8539 76.6459V77.9896C52.8539 78.4648 52.6652 78.9205 52.3292 79.2565C51.9932 79.5925 51.5374 79.7813 51.0623 79.7813H30.906V81.125C30.906 81.6002 31.0948 82.0559 31.4308 82.3919C31.7668 82.7279 32.2225 82.9167 32.6977 82.9167H53.3018C53.777 82.9167 54.2327 82.7279 54.5687 82.3919C54.9047 82.0559 55.0935 81.6002 55.0935 81.125V76.6459H52.8539Z" fill="black"/>
<path d="M56.8853 76.6459H29.1144C28.6392 76.6459 28.1835 76.4571 27.8475 76.1211C27.5115 75.7851 27.3228 75.3294 27.3228 74.8542V69.4792H58.6769V74.8542C58.6769 75.3294 58.4882 75.7851 58.1522 76.1211C57.8162 76.4571 57.3604 76.6459 56.8853 76.6459Z" fill="#08D1C7"/>
<path opacity="0.2" d="M27.3315 69.4792V72.4534H37.7411C38.2163 72.4534 38.672 72.2646 39.008 71.9286C39.344 71.5926 39.5328 71.1369 39.5328 70.6617V69.4792H27.3315Z" fill="#FBFBFB"/>
<path opacity="0.2" d="M54.1618 69.4792V71.6292C54.1618 72.1044 53.973 72.5601 53.637 72.8961C53.301 73.2321 52.8453 73.4209 52.3701 73.4209H27.3315V74.8542C27.3315 75.3294 27.5203 75.7851 27.8563 76.1211C28.1923 76.4571 28.648 76.6459 29.1232 76.6459H56.894C57.3692 76.6459 57.8249 76.4571 58.1609 76.1211C58.4969 75.7851 58.6857 75.3294 58.6857 74.8542V69.4792H54.1618Z" fill="url(#paint2_linear_413_1158)"/>
<defs>
<linearGradient id="paint0_linear_413_1158" x1="43.3335" y1="-4.5" x2="42.9915" y2="69.4792" gradientUnits="userSpaceOnUse">
<stop stop-color="#FBFBFB"/>
<stop offset="1" stop-color="#40E0D0"/>
</linearGradient>
<linearGradient id="paint1_linear_413_1158" x1="42.9998" y1="76.6459" x2="42.9998" y2="82.9167" gradientUnits="userSpaceOnUse">
<stop stop-color="#40E0D0"/>
<stop offset="1" stop-color="#40E0D0"/>
</linearGradient>
<linearGradient id="paint2_linear_413_1158" x1="27.3315" y1="73.0625" x2="58.6857" y2="73.0625" gradientUnits="userSpaceOnUse">
<stop stop-color="#40E0D0"/>
<stop offset="1" stop-color="#223958"/>
</linearGradient>
</defs>
</svg>
