<svg width="41" height="41" viewBox="0 0 41 41" fill="none" xmlns="http://www.w3.org/2000/svg">
<g clip-path="url(#clip0_413_1271)">
<path fill-rule="evenodd" clip-rule="evenodd" d="M20.4941 10.7021C20.4924 4.12331 26.8451 -0.588352 33.1402 1.32265C34.1522 1.62915 34.4721 2.90415 33.7244 3.65215L27.5274 9.84731C27.6449 10.734 28.0426 11.5906 28.7239 12.272C29.4051 12.9533 30.2619 13.3508 31.1504 13.4666L37.3437 7.27148C38.0917 6.52381 39.3666 6.84348 39.6732 7.85565C41.6871 14.4886 36.3659 21.0583 29.4592 20.4663C27.5591 20.3058 25.9687 20.653 25.1494 21.6496L11.8032 37.861C8.78207 41.5118 2.94157 40.5231 1.2904 36.0811C0.378069 33.627 1.11807 30.8641 3.1349 29.1945L19.3442 15.8465C20.3392 15.0251 20.6882 13.4366 20.5277 11.5365C20.5049 11.259 20.4936 10.9806 20.4941 10.7021ZM5.77974 33.8011C5.77974 33.028 6.40657 32.4011 7.17974 32.4011H7.19474C7.9679 32.4013 8.59457 33.028 8.59457 33.8011V33.8162C8.59457 34.5893 7.9679 35.216 7.19474 35.216H7.17974C6.40657 35.216 5.77974 34.5893 5.77974 33.8162V33.8011Z" fill="url(#paint0_linear_413_1271)"/>
<path d="M16.9025 14.2301L12.7942 10.1236V7.20058C12.7942 6.70891 12.5364 6.25341 12.1149 6.00041L5.11504 1.80058C4.56421 1.47041 3.85938 1.55724 3.40538 2.01141L2.00538 3.41141C1.55121 3.86541 1.46421 4.57041 1.79454 5.12124L5.99438 12.1209C6.24738 12.5424 6.70288 12.8002 7.19454 12.8002H10.1139L13.9627 16.6492L16.9025 14.2282V14.2301Z" fill="url(#paint1_linear_413_1271)"/>
<path fill-rule="evenodd" clip-rule="evenodd" d="M21.5317 30.4488L29.3397 38.2548C32.7687 41.684 38.6242 40.115 39.8794 35.4307C40.4619 33.2567 39.8404 30.9372 38.2489 29.3457L32.0779 23.1765C31.1321 23.3107 30.1741 23.3377 29.2221 23.2568C28.4866 23.1933 27.9491 23.2457 27.6037 23.3352C27.4944 23.3583 27.3894 23.398 27.2921 23.4528L21.5317 30.4488ZM27.9042 27.9102C28.4509 27.3643 29.3362 27.3643 29.8829 27.9102L33.3827 31.412C34.1711 32.1468 33.8682 33.4593 32.8377 33.7747C32.3257 33.9313 31.7692 33.7822 31.4041 33.3905L27.9042 29.8907C27.3584 29.3442 27.3584 28.4587 27.9042 27.9122V27.9102Z" fill="url(#paint2_linear_413_1271)"/>
</g>
<defs>
<linearGradient id="paint0_linear_413_1271" x1="3.27124" y1="35.8884" x2="32.8847" y2="4.29886" gradientUnits="userSpaceOnUse">
<stop stop-color="#40E0D0"/>
<stop offset="1" stop-color="#F5F5F5"/>
</linearGradient>
<linearGradient id="paint1_linear_413_1271" x1="2.51949" y1="15.0349" x2="13.8731" y2="2.7147" gradientUnits="userSpaceOnUse">
<stop stop-color="#40E0D0"/>
<stop offset="1" stop-color="#F5F5F5"/>
</linearGradient>
<linearGradient id="paint2_linear_413_1271" x1="22.6526" y1="38.2879" x2="35.3108" y2="23.4804" gradientUnits="userSpaceOnUse">
<stop stop-color="#40E0D0"/>
<stop offset="1" stop-color="#F5F5F5"/>
</linearGradient>
<clipPath id="clip0_413_1271">
<rect width="40" height="40" fill="white" transform="translate(0.5 0.5)"/>
</clipPath>
</defs>
</svg>
