<svg width="86" height="87" viewBox="0 0 86 87" fill="none" xmlns="http://www.w3.org/2000/svg">
<path d="M32.2498 39.9167C35.0847 39.9167 37.8559 39.076 40.213 37.5011C42.5701 35.9261 44.4073 33.6875 45.4921 31.0685C46.577 28.4494 46.8608 25.5674 46.3078 22.787C45.7547 20.0067 44.3896 17.4527 42.385 15.4481C40.3805 13.4436 37.8265 12.0785 35.0461 11.5254C32.2657 10.9724 29.3838 11.2562 26.7647 12.3411C24.1456 13.4259 21.9071 15.2631 20.3321 17.6202C18.7571 19.9773 17.9165 22.7485 17.9165 25.5833C17.9165 29.3848 19.4266 33.0305 22.1146 35.7185C24.8027 38.4066 28.4484 39.9167 32.2498 39.9167ZM60.9165 47.0833C63.0427 47.0833 65.121 46.4529 66.8889 45.2716C68.6567 44.0904 70.0346 42.4115 70.8482 40.4472C71.6618 38.4829 71.8747 36.3214 71.4599 34.2361C71.0452 32.1508 70.0213 30.2354 68.5179 28.7319C67.0145 27.2285 65.099 26.2047 63.0137 25.7899C60.9284 25.3751 58.767 25.588 56.8027 26.4016C54.8383 27.2153 53.1594 28.5931 51.9782 30.361C50.797 32.1288 50.1665 34.2072 50.1665 36.3333C50.1665 39.1844 51.2991 41.9187 53.3151 43.9347C55.3311 45.9508 58.0654 47.0833 60.9165 47.0833ZM75.2498 72.1667C76.2002 72.1667 77.1116 71.7892 77.7836 71.1171C78.4556 70.4451 78.8332 69.5337 78.8332 68.5833C78.8303 65.2343 77.8888 61.9532 76.1156 59.1122C74.3424 56.2711 71.8084 53.984 68.8011 52.5102C65.7938 51.0364 62.4336 50.435 59.1019 50.7742C55.7701 51.1134 52.6001 52.3796 49.9515 54.4292C46.4417 50.9331 41.9752 48.5546 37.1154 47.5937C32.2555 46.6328 27.22 47.1324 22.6437 49.0296C18.0675 50.9268 14.1555 54.1365 11.4011 58.2541C8.64667 62.3717 7.17321 67.2128 7.1665 72.1667C7.1665 73.117 7.54403 74.0285 8.21604 74.7005C8.88804 75.3725 9.79948 75.75 10.7498 75.75H53.7498C54.7002 75.75 55.6116 75.3725 56.2836 74.7005C56.9556 74.0285 57.3332 73.117 57.3332 72.1667" fill="url(#paint0_linear_413_1179)"/>
<defs>
<linearGradient id="paint0_linear_413_1179" x1="42.9998" y1="75.75" x2="42.9998" y2="11.25" gradientUnits="userSpaceOnUse">
<stop stop-color="#40E0D0"/>
<stop offset="1" stop-color="#F5F5F5"/>
</linearGradient>
</defs>
</svg>
