<svg width="41" height="41" viewBox="0 0 41 41" fill="none" xmlns="http://www.w3.org/2000/svg">
<g clip-path="url(#clip0_413_1248)">
<path d="M12.3603 40.2224L17.9392 30.3044C13.5277 29.6241 9.68713 27.2139 7.13207 23.7886L0.975342 34.6664H8.23493L12.3603 40.2224Z" fill="url(#paint0_linear_413_1248)"/>
<path d="M33.8673 23.7896C31.3121 27.2147 27.4713 29.6247 23.0598 30.3047L28.6386 40.2226L32.764 34.6666H40.0236L33.8673 23.7896Z" fill="url(#paint1_linear_413_1248)"/>
<path fill-rule="evenodd" clip-rule="evenodd" d="M20.5001 27.1667C13.1363 27.1667 7.16675 21.1972 7.16675 13.8333C7.16675 6.46953 13.1363 0.5 20.5001 0.5C27.8639 0.5 33.8334 6.46953 33.8334 13.8333C33.8334 21.1972 27.8639 27.1667 20.5001 27.1667ZM20.5007 7.1984L22.7656 11.081L26.9206 12.3595L24.1372 15.1428L25.0884 19.8988L20.5007 17.8292L15.913 19.8988L16.8641 15.1428L14.0808 12.3595L18.2359 11.081L20.5007 7.1984Z" fill="url(#paint2_linear_413_1248)"/>
</g>
<defs>
<linearGradient id="paint0_linear_413_1248" x1="1.99965" y1="38.4594" x2="14.3828" y2="24.8236" gradientUnits="userSpaceOnUse">
<stop stop-color="#40E0D0"/>
<stop offset="1" stop-color="#F5F5F5"/>
</linearGradient>
<linearGradient id="paint1_linear_413_1248" x1="24.0841" y1="38.4596" x2="36.4666" y2="24.824" gradientUnits="userSpaceOnUse">
<stop stop-color="#40E0D0"/>
<stop offset="1" stop-color="#F5F5F5"/>
</linearGradient>
<linearGradient id="paint2_linear_413_1248" x1="8.77692" y1="24.3058" x2="28.9219" y2="2.81623" gradientUnits="userSpaceOnUse">
<stop stop-color="#40E0D0"/>
<stop offset="1" stop-color="#F5F5F5"/>
</linearGradient>
<clipPath id="clip0_413_1248">
<rect width="40" height="40" fill="white" transform="translate(0.5 0.5)"/>
</clipPath>
</defs>
</svg>
