<svg width="80" height="80" viewBox="0 0 80 80" fill="none" xmlns="http://www.w3.org/2000/svg">
<path fill-rule="evenodd" clip-rule="evenodd" d="M40 80C65.6 80 80 65.6 80 40C80 14.4 65.6 0 40 0C14.4 0 0 14.4 0 40C0 65.6 14.4 80 40 80ZM60.7806 65.8789C59.3257 63.168 57.3434 60.7486 54.9267 58.7737C50.7143 55.3304 45.441 53.4495 40.0005 53.4495C34.5599 53.4495 29.2866 55.3304 25.0742 58.7737C22.6577 60.7486 20.6755 63.168 19.2202 65.8789C23.9767 69.2977 30.741 71.4286 40.0006 71.4286C49.2601 71.4286 56.0243 69.2977 60.7806 65.8789ZM53.4577 30.1074C53.4577 38.7228 48.6115 43.5689 39.9961 43.5689C31.3807 43.5689 26.5346 38.7228 26.5346 30.1074C26.5346 21.492 31.3807 16.6458 39.9961 16.6458C48.6115 16.6458 53.4577 21.492 53.4577 30.1074Z" fill="url(#paint0_linear_255_1395)"/>
<defs>
<linearGradient id="paint0_linear_255_1395" x1="79.7314" y1="80.0171" x2="-15.0057" y2="26.7257" gradientUnits="userSpaceOnUse">
<stop stop-color="#1C1C1C" stop-opacity="0.32"/>
<stop offset="1" stop-color="#545454"/>
</linearGradient>
</defs>
</svg>
