<svg width="86" height="87" viewBox="0 0 86 87" fill="none" xmlns="http://www.w3.org/2000/svg">
<g clip-path="url(#clip0_413_1189)">
<path fill-rule="evenodd" clip-rule="evenodd" d="M34.724 8.76809L38.0061 11.4062L36.9014 15.4697C36.7143 16.1584 36.9664 16.8743 37.5435 17.2939C37.8337 17.5064 38.184 17.6213 38.5438 17.6217C38.8668 17.6217 39.1906 17.5283 39.4772 17.3409L43.0002 15.0347L46.5235 17.3409C47.1208 17.7317 47.8796 17.7138 48.458 17.2933C49.0346 16.8738 49.2864 16.158 49.0993 15.4695L47.9945 11.4062L51.2765 8.76826C51.8328 8.32163 52.0498 7.59433 51.8298 6.91557C51.6094 6.2363 51.0062 5.77489 50.293 5.74029L46.0871 5.5352L44.5925 1.59868V1.59835C44.3389 0.931176 43.714 0.5 43.0003 0.5C42.2865 0.5 41.6614 0.931176 41.4081 1.59835L39.9136 5.5352L35.7078 5.74029C34.9944 5.77489 34.3911 6.2363 34.1714 6.91422C33.9502 7.59366 34.1675 8.32163 34.724 8.76809ZM40.6879 8.1881C41.0189 8.17215 41.338 8.05993 41.6061 7.86521C41.8742 7.67049 42.0797 7.40174 42.1973 7.09193L43.0002 4.97704L43.803 7.0921C43.9206 7.40181 44.126 7.67049 44.394 7.86517C44.662 8.05986 44.981 8.17209 45.3119 8.1881L47.5713 8.29829L45.8081 9.71544C45.5498 9.92297 45.3577 10.2013 45.2553 10.5164C45.153 10.8315 45.1447 11.1696 45.2316 11.4894L45.8251 13.6723L43.9334 12.434C43.6562 12.2522 43.3319 12.1552 43.0003 12.1551C42.6688 12.155 42.3444 12.2517 42.0671 12.4333L40.1744 13.6723L40.768 11.4887C40.8549 11.1691 40.8466 10.831 40.7442 10.5161C40.6417 10.2011 40.4496 9.92283 40.1914 9.71544L38.4284 8.29829L40.6879 8.1881ZM53.6657 12.4009L56.9479 15.0389L55.8432 19.1024C55.6561 19.791 55.9082 20.5069 56.4854 20.9265C56.7756 21.1391 57.1259 21.2539 57.4856 21.2544C57.8086 21.2544 58.1325 21.161 58.419 20.9735L61.9422 18.6673L65.4655 20.9735C66.0624 21.3642 66.8208 21.3461 67.4 20.926C67.9768 20.5064 68.2286 19.7905 68.0413 19.1024L66.9365 15.0389L70.2185 12.4011C70.7751 11.9536 70.9921 11.226 70.7718 10.5482C70.5514 9.86896 69.9482 9.40755 69.235 9.37295L65.0291 9.16786L63.5345 5.23134V5.23101C63.281 4.56384 62.6562 4.13266 61.9425 4.13266C61.2286 4.13266 60.6036 4.56384 60.3503 5.23101L58.8557 9.16786L54.65 9.37295C53.9366 9.40755 53.3333 9.86896 53.1135 10.5469C52.8925 11.2255 53.1092 11.9529 53.6657 12.4009ZM59.6299 11.8206C59.9609 11.8046 60.28 11.6924 60.5481 11.4977C60.8162 11.303 61.0217 11.0342 61.1393 10.7244L61.942 8.60953L62.745 10.7246C62.8626 11.0343 63.068 11.303 63.336 11.4977C63.604 11.6923 63.923 11.8046 64.2539 11.8206L66.5133 11.9308L64.7499 13.3481C64.4916 13.5555 64.2995 13.8339 64.1971 14.149C64.0947 14.4641 64.0866 14.8022 64.1736 15.1218L64.7671 17.3048L62.8754 16.0665C62.5982 15.8845 62.2739 15.7875 61.9423 15.7874C61.6107 15.7873 61.2863 15.884 61.0089 16.0658L59.1164 17.3046L59.71 15.1215C59.7968 14.8018 59.7885 14.4638 59.6861 14.1488C59.5837 13.8337 59.3916 13.5554 59.1334 13.3479L57.3702 11.9308L59.6299 11.8206ZM15.7818 12.4009L19.0639 15.0389L17.9597 19.1012C17.7718 19.7904 18.0235 20.5068 18.6013 20.9267C18.8917 21.1392 19.242 21.2541 19.6018 21.2547C19.9249 21.2547 20.2488 21.1613 20.535 20.9737L24.0582 18.6675L27.5815 20.9737C28.1788 21.3647 28.9375 21.3464 29.5153 20.9267C30.0926 20.5073 30.3445 19.7912 30.1573 19.1025L29.0525 15.039L32.3355 12.4006C32.8915 11.9531 33.1081 11.2256 32.8878 10.5484C32.6674 9.86913 32.0642 9.40772 31.351 9.37312L27.1451 9.16803L25.6505 5.23151V5.23118C25.397 4.564 24.7722 4.13283 24.0585 4.13283C23.3439 4.13283 22.7188 4.56451 22.4666 5.23118L20.9719 9.16803L16.766 9.37312C16.0534 9.40772 15.4503 9.86863 15.229 10.5484C15.0088 11.2268 15.2259 11.954 15.7818 12.4009ZM21.7459 11.8206C22.0769 11.8047 22.396 11.6925 22.6641 11.4978C22.9322 11.3031 23.1376 11.0343 23.2551 10.7244L24.0582 8.6097L24.861 10.7246C24.9786 11.0343 25.184 11.303 25.452 11.4977C25.72 11.6923 26.039 11.8046 26.3699 11.8206L28.6293 11.9308L26.8651 13.3484C26.6072 13.5561 26.4155 13.8344 26.3133 14.1494C26.2111 14.4643 26.2029 14.8022 26.2896 15.1217L26.883 17.3046L24.9914 16.0663C24.7142 15.8845 24.3899 15.7875 24.0583 15.7874C23.7268 15.7873 23.4024 15.884 23.1251 16.0657L21.2326 17.3044L21.826 15.1213C21.913 14.8017 21.9047 14.4636 21.8023 14.1485C21.6998 13.8335 21.5077 13.5552 21.2494 13.3478L19.4862 11.9306L21.7459 11.8206ZM29.2706 33.1928C30.2787 32.1438 30.9007 30.7208 30.9007 29.1545C30.9007 25.9384 28.2841 23.3216 25.0678 23.3216C21.8515 23.3216 19.2349 25.9382 19.2349 29.1545C19.2349 30.7213 19.8571 32.1448 20.8659 33.1938C18.2506 34.3647 16.194 36.6121 15.3013 39.495C14.9799 40.5323 15.1637 41.6263 15.805 42.4964C16.4465 43.3666 17.4373 43.8657 18.5236 43.8657H29.8574V44.9205C29.8574 47.4101 31.8831 49.4357 34.3728 49.4357H51.6279C54.1172 49.4357 56.1429 47.4101 56.143 44.9205V43.8662H67.4771C68.5633 43.8662 69.554 43.367 70.1956 42.4969C70.8369 41.6266 71.0205 40.5327 70.6992 39.4953C69.8066 36.6124 67.7498 34.365 65.1347 33.1941C66.1436 32.145 66.7657 30.7216 66.7657 29.1548C66.7657 25.9387 64.1491 23.3219 60.9328 23.3219C57.7166 23.3219 55.1 25.9385 55.1 29.1548C55.1 30.7211 55.7218 32.144 56.7299 33.1929C55.4605 33.7631 54.3226 34.5893 53.3873 35.6197C51.9284 33.766 49.9991 32.3374 47.8004 31.4827C49.3568 30.1351 50.3442 28.1472 50.3442 25.9316C50.3442 21.8823 47.0499 18.5875 43.0003 18.5875C38.9508 18.5875 35.6562 21.8821 35.6562 25.9316C35.6562 28.1472 36.6437 30.1351 38.2001 31.4827C36.0014 32.3374 34.0721 33.766 32.6131 35.6197C31.678 34.5892 30.54 33.7629 29.2706 33.1928ZM25.0678 26.0091C26.8021 26.0091 28.2132 27.42 28.2132 29.1545C28.2132 30.8889 26.8023 32.2998 25.0678 32.2998C23.3334 32.2998 21.9224 30.8889 21.9224 29.1545C21.9224 27.42 23.3335 26.0091 25.0678 26.0091ZM17.9684 40.9019C17.9039 40.8153 17.8612 40.7145 17.8438 40.608C17.8264 40.5015 17.8349 40.3923 17.8685 40.2898C18.851 37.118 21.7439 34.9872 25.0676 34.9872C27.4842 34.9872 29.6913 36.1117 31.1103 38.0249C30.6247 39.0268 30.2684 40.0864 30.0498 41.1782H18.5236C18.4157 41.18 18.3089 41.1559 18.2123 41.1078C18.1157 41.0597 18.032 40.9891 17.9684 40.9019ZM57.7873 29.1548C57.7873 27.4205 59.1982 26.0094 60.9327 26.0094C62.6671 26.0094 64.078 27.4204 64.078 29.1548C64.078 30.8892 62.6671 32.3002 60.9327 32.3002C59.1982 32.3002 57.7873 30.8891 57.7873 29.1548ZM60.9327 34.9875C64.2566 34.9875 67.1497 37.1185 68.1318 40.2903C68.1654 40.3928 68.1739 40.502 68.1566 40.6085C68.1392 40.715 68.0965 40.8158 68.032 40.9024C67.9684 40.9896 67.8848 41.0603 67.7881 41.1084C67.6915 41.1565 67.5847 41.1807 67.4767 41.1788H55.9505C55.7318 40.087 55.3755 39.0273 54.89 38.0252C56.3088 36.1122 58.5161 34.9875 60.9327 34.9875ZM43.0003 21.275C45.5679 21.275 47.6567 23.3641 47.6567 25.9316C47.6567 28.4992 45.5679 30.5881 43.0003 30.5881C40.4328 30.5881 38.3437 28.4992 38.3437 25.9316C38.3437 23.3641 40.4328 21.275 43.0003 21.275ZM43.0002 33.2754C48.3686 33.2754 52.851 37.2774 53.4554 42.5958V44.9205C53.4552 45.9283 52.6353 46.7483 51.6277 46.7483H34.3728C33.365 46.7483 32.5449 45.9285 32.5449 44.9207V42.5958C33.1493 37.2774 37.6317 33.2754 43.0002 33.2754ZM82.4797 55.1936C81.7094 53.9075 78.5494 50.0882 70.2279 54.935L55.621 63.4426C54.9281 63.8461 54.224 64.137 53.4913 64.318C53.7532 63.8768 53.9599 63.3831 54.1052 62.8408C54.8582 60.0295 53.1881 57.0944 50.3029 56.159C50.2453 56.1405 50.1865 56.1257 50.1269 56.1148C45.9331 55.3584 41.7921 53.8613 38.4647 52.6585C37.3072 52.2401 36.2142 51.8449 35.2842 51.5434C31.5259 50.3237 28.1344 51.8307 25.3115 53.4651L14.4858 59.7328L13.3221 57.6766C12.8637 56.8663 12.1147 56.2824 11.2136 56.0328C10.3128 55.7832 9.36979 55.8981 8.55984 56.3568L4.46157 58.6763C2.78474 59.6253 2.19248 61.7616 3.14167 63.4386L15.1906 84.7284C15.8327 85.8631 17.0184 86.501 18.2375 86.501C18.8202 86.501 19.4106 86.3552 19.9528 86.0483L24.0513 83.7289C24.8614 83.2703 25.4452 82.5215 25.6948 81.6203C25.9446 80.7192 25.8297 79.7767 25.371 78.9664L24.3148 77.1003L26.7341 75.7036L45.4234 80.7113C46.4843 80.9957 47.5259 81.1376 48.545 81.1376C50.5767 81.1376 52.5191 80.5732 54.3473 79.4477L80.8553 63.1251C83.293 61.6247 84.0672 57.8442 82.4797 55.1936ZM23.1054 80.9026C23.0778 81.0048 23.0302 81.1004 22.9654 81.184C22.9006 81.2677 22.8199 81.3376 22.7278 81.3899L18.6294 83.7095C18.5372 83.7615 18.4357 83.7947 18.3306 83.8072C18.2255 83.8197 18.119 83.8113 18.0172 83.7824C17.915 83.7548 17.8193 83.7072 17.7357 83.6424C17.652 83.5776 17.582 83.4968 17.5297 83.4048L5.48064 62.1148C5.42866 62.0226 5.39545 61.9211 5.38294 61.816C5.37043 61.7109 5.37886 61.6044 5.40774 61.5026C5.43541 61.4004 5.48304 61.3047 5.54788 61.2211C5.61271 61.1374 5.69348 61.0674 5.7855 61.0151L9.88377 58.6956C10.0032 58.628 10.1382 58.5925 10.2755 58.5925C10.349 58.5925 10.423 58.6026 10.496 58.6229C10.5982 58.6505 10.6938 58.6981 10.7775 58.7629C10.8611 58.8277 10.9311 58.9085 10.9833 59.0005L21.324 77.2716C21.3245 77.2726 21.3248 77.2736 21.3255 77.2745L21.3266 77.2765L23.0324 80.2902C23.1375 80.4758 23.1634 80.6933 23.1054 80.9026ZM79.4465 60.8367L52.9385 77.1593C50.8482 78.4464 48.5534 78.7684 46.1193 78.1153L26.8923 72.9636C26.7219 72.9179 26.5441 72.9062 26.3692 72.9292C26.1942 72.9522 26.0255 73.0095 25.8727 73.0978L22.9912 74.7612L15.8097 62.072L26.6583 55.7909C29.0844 54.3862 31.7083 53.2086 34.4551 54.1C35.3426 54.3877 36.3661 54.7576 37.5511 55.1861C40.9482 56.4143 45.1701 57.9404 49.5524 58.7422C51.0529 59.2682 51.8919 60.7173 51.5091 62.1455C51.0057 64.0241 49.4377 64.2591 48.1897 64.116C46.0406 63.6741 43.9974 63.0909 41.8355 62.4734C40.8092 62.1803 39.7478 61.8771 38.6567 61.5849C38.3124 61.4926 37.9456 61.5409 37.637 61.7191C37.3283 61.8973 37.1031 62.1908 37.0109 62.5351C36.9187 62.8793 36.9669 63.2461 37.1451 63.5547C37.3233 63.8634 37.6168 64.0886 37.9611 64.1808C39.0309 64.4674 40.0814 64.7674 41.0972 65.0576C43.3274 65.6945 45.4339 66.2962 47.7031 66.7601C47.7118 66.762 47.7206 66.7625 47.7291 66.7642C47.7384 66.7659 47.7471 66.7685 47.7565 66.7701L49.5728 67.0653C52.3008 67.5022 54.7213 67.0766 56.9731 65.7654L71.58 57.2578C75.7594 54.8241 78.972 54.5686 80.1738 56.575C81.0007 57.9549 80.6337 60.1059 79.4465 60.8367ZM11.2124 63.0539C11.2422 63.2449 11.2338 63.44 11.1878 63.6278C11.1418 63.8156 11.059 63.9924 10.9442 64.148C10.8295 64.3036 10.685 64.4349 10.5192 64.5343C10.3534 64.6338 10.1695 64.6994 9.97819 64.7274C9.78687 64.7553 9.59192 64.7451 9.40458 64.6973C9.21724 64.6495 9.04123 64.565 8.88673 64.4487C8.73224 64.3325 8.60231 64.1868 8.50445 64.02C8.4066 63.8533 8.34276 63.6688 8.31662 63.4772C8.26449 63.0951 8.36533 62.7078 8.59721 62.3996C8.82909 62.0914 9.17327 61.8872 9.55489 61.8314C9.93651 61.7757 10.3247 61.8728 10.6351 62.1017C10.9455 62.3306 11.153 62.6728 11.2124 63.0539Z" fill="url(#paint0_linear_413_1189)"/>
</g>
<defs>
<linearGradient id="paint0_linear_413_1189" x1="72.6608" y1="77.2747" x2="7.55699" y2="12.1707" gradientUnits="userSpaceOnUse">
<stop stop-color="#40E0D0"/>
<stop offset="1" stop-color="#F5F5F5"/>
</linearGradient>
<clipPath id="clip0_413_1189">
<rect width="86" height="86" fill="white" transform="translate(0 0.5)"/>
</clipPath>
</defs>
</svg>
