<svg width="41" height="41" viewBox="0 0 41 41" fill="none" xmlns="http://www.w3.org/2000/svg">
<g clip-path="url(#clip0_413_1282)">
<path fill-rule="evenodd" clip-rule="evenodd" d="M17.3042 4.25H23.6932L27.5575 15.915H13.4408L17.3042 4.25ZM14.6707 4.25H9.20366C7.83366 4.25 6.57271 4.99707 5.91462 6.19862L1.11763 14.9572C0.949677 15.2638 0.828351 15.5862 0.752441 15.915H10.8965C10.9176 15.7311 10.95 15.548 10.9936 15.3667C11.0017 15.3327 11.0113 15.2991 11.0223 15.2659L14.6707 4.25ZM1.04205 18.415C1.20859 18.7534 1.4282 19.0704 1.69918 19.3532L17.1268 35.4515L11.2847 18.415H1.04205ZM23.8703 35.455L39.3013 19.3532C39.5722 19.0704 39.7919 18.7534 39.9584 18.415H29.7137L23.8703 35.455ZM40.2481 15.915H30.1018C30.0807 15.7311 30.0484 15.548 30.0047 15.3667C29.9966 15.3327 29.987 15.299 29.976 15.2658L26.3268 4.25H31.7968C33.1668 4.25 34.4277 4.99707 35.0858 6.19862L39.8828 14.9572C40.0508 15.2638 40.1722 15.5862 40.2481 15.915ZM20.4992 37.5787L13.9275 18.415H27.0708L20.4992 37.5787Z" fill="url(#paint0_linear_413_1282)"/>
</g>
<defs>
<linearGradient id="paint0_linear_413_1282" x1="3.13724" y1="34.0031" x2="27.69" y2="2.96518" gradientUnits="userSpaceOnUse">
<stop stop-color="#40E0D0"/>
<stop offset="1" stop-color="#F5F5F5"/>
</linearGradient>
<clipPath id="clip0_413_1282">
<rect width="40" height="40" fill="white" transform="translate(0.5 0.5)"/>
</clipPath>
</defs>
</svg>
