<svg width="16" height="16" viewBox="0 0 16 16" fill="none" xmlns="http://www.w3.org/2000/svg">
<path d="M7.10337 1.48329C7.47021 0.740118 8.52995 0.740119 8.89679 1.48329L10.3426 4.41241C10.4882 4.70726 10.7694 4.91172 11.0947 4.95928L14.3296 5.43211C15.1495 5.55195 15.4763 6.55979 14.8827 7.13795L12.5435 9.41633C12.3077 9.64607 12.2 9.9772 12.2557 10.3017L12.8075 13.5193C12.9476 14.3362 12.0901 14.9592 11.3564 14.5734L8.46553 13.0531C8.17415 12.8999 7.82601 12.8999 7.53463 13.0531L4.64371 14.5734C3.91008 14.9592 3.05254 14.3362 3.19265 13.5193L3.7445 10.3017C3.80016 9.9772 3.6925 9.64607 3.45663 9.41633L1.11743 7.13795C0.523835 6.55979 0.850617 5.55195 1.67053 5.43211L4.90545 4.95928C5.2308 4.91172 5.51199 4.70726 5.65753 4.41241L7.10337 1.48329Z" fill="#FFB800" stroke="#FFB800" stroke-linecap="round" stroke-linejoin="round"/>
</svg>
